<svg viewBox="0 0 120 120" xmlns="http://www.w3.org/2000/svg">
  <defs>
    <linearGradient id="bg1" x1="0%" y1="0%" x2="100%" y2="100%">
      <stop offset="0%" stop-color="#022c22"/>
      <stop offset="50%" stop-color="#065f46"/>
      <stop offset="100%" stop-color="#10b981"/>
    </linearGradient>
    <linearGradient id="leafGrad" x1="0%" y1="0%" x2="100%" y2="100%">
      <stop offset="0%" stop-color="#a7f3d0"/>
      <stop offset="100%" stop-color="#34d399"/>
    </linearGradient>
    <filter id="shadow" x="-10%" y="-10%" width="120%" height="120%">
      <feDropShadow dx="0" dy="4" stdDeviation="4" flood-color="#022c22" flood-opacity="0.3"/>
    </filter>
  </defs>
  <circle cx="60" cy="60" r="56" fill="url(#bg1)" stroke="#047857" stroke-width="2"/>
  <circle cx="60" cy="60" r="48" fill="none" stroke="rgba(255, 255, 255, 0.08)" stroke-width="4" stroke-dasharray="10 15"/>
  <g filter="url(#shadow)">
    <path d="M60 22 C78 22 88 38 88 60 C88 80 78 92 60 92 C42 92 32 80 32 60 C32 38 42 22 60 22 Z" fill="url(#leafGrad)"/>
    <path d="M60 22 L60 92" stroke="#065f46" stroke-width="2" stroke-linecap="round"/>
    <path d="M48 40 C40 42 36 34 36 34" stroke="#065f46" stroke-width="2.5" stroke-linecap="round" fill="none"/>
    <path d="M42 54 C34 56 30 48 30 48" stroke="#065f46" stroke-width="2.5" stroke-linecap="round" fill="none"/>
    <path d="M44 68 C36 70 34 62 34 62" stroke="#065f46" stroke-width="2.5" stroke-linecap="round" fill="none"/>
    <path d="M72 40 C80 42 84 34 84 34" stroke="#065f46" stroke-width="2.5" stroke-linecap="round" fill="none"/>
    <path d="M78 54 C86 56 90 48 90 48" stroke="#065f46" stroke-width="2.5" stroke-linecap="round" fill="none"/>
    <path d="M76 68 C84 70 86 62 86 62" stroke="#065f46" stroke-width="2.5" stroke-linecap="round" fill="none"/>
  </g>
</svg>
