<svg viewBox="0 0 120 120" xmlns="http://www.w3.org/2000/svg">
  <defs>
    <linearGradient id="bg8" x1="0%" y1="0%" x2="100%" y2="100%">
      <stop offset="0%" stop-color="#1e293b"/>
      <stop offset="100%" stop-color="#0f172a"/>
    </linearGradient>
    <linearGradient id="hoodie" x1="0%" y1="0%" x2="0%" y2="100%">
      <stop offset="0%" stop-color="#6c4dff"/>
      <stop offset="100%" stop-color="#4f46e5"/>
    </linearGradient>
    <linearGradient id="skin" x1="0%" y1="0%" x2="0%" y2="100%">
      <stop offset="0%" stop-color="#ffedd5"/>
      <stop offset="100%" stop-color="#fdba74"/>
    </linearGradient>
  </defs>
  <circle cx="60" cy="60" r="56" fill="url(#bg8)" stroke="#334155" stroke-width="2"/>
  <path d="M30 110 C30 92 40 82 60 82 C80 82 90 92 90 110 Z" fill="url(#hoodie)"/>
  <path d="M50 82 L60 98 L70 82" stroke="#ffedd5" stroke-width="2.5" fill="none" stroke-linecap="round"/>
  <rect x="52" y="70" width="16" height="15" rx="3" fill="#fdba74"/>
  <rect x="42" y="38" width="36" height="40" rx="18" fill="url(#skin)"/>
  <path d="M40 44 C36 40 42 22 60 22 C78 22 84 38 80 44 C76 46 80 34 60 32 C40 30 44 46 40 44 Z" fill="#1e1b4b"/>
  <path d="M41 44 L41 52 H44 Z" fill="#1e1b4b"/>
  <path d="M79 44 L79 52 H76 Z" fill="#1e1b4b"/>
  <circle cx="51" cy="56" r="2.5" fill="#1e293b"/>
  <circle cx="69" cy="56" r="2.5" fill="#1e293b"/>
  <path d="M47 50 Q51 48 55 51" stroke="#1e1b4b" stroke-width="1.5" stroke-linecap="round" fill="none"/>
  <path d="M73 50 Q69 48 65 51" stroke="#1e1b4b" stroke-width="1.5" stroke-linecap="round" fill="none"/>
  <circle cx="51" cy="56" r="7" stroke="#6c4dff" stroke-width="1.5" fill="none"/>
  <circle cx="69" cy="56" r="7" stroke="#6c4dff" stroke-width="1.5" fill="none"/>
  <line x1="58" y1="56" x2="62" y2="56" stroke="#6c4dff" stroke-width="1.5"/>
  <line x1="44" y1="56" x2="41" y2="55" stroke="#6c4dff" stroke-width="1.5"/>
  <line x1="76" y1="56" x2="79" y2="55" stroke="#6c4dff" stroke-width="1.5"/>
  <path d="M55 68 Q60 72 65 68" stroke="#1e1b4b" stroke-width="1.5" stroke-linecap="round" fill="none"/>
</svg>
